<?xml version="1.0" standalone="no"?>
<!DOCTYPE svg PUBLIC "-//W3C//DTD SVG 20010904//EN"
 "http://www.w3.org/TR/2001/REC-SVG-20010904/DTD/svg10.dtd">
<svg version="1.0" xmlns="http://www.w3.org/2000/svg"
 width="536.000000pt" height="536.000000pt" viewBox="0 0 536.000000 536.000000"
 preserveAspectRatio="xMidYMid meet">
<metadata>
Created by potrace 1.11, written by Peter Selinger 2001-2013
</metadata>
<g transform="translate(0.000000,536.000000) scale(0.100000,-0.100000)"
fill="#000000" stroke="none">
<path d="M2080 5336 c-192 -59 -325 -112 -485 -193 -95 -48 -310 -175 -325
-192 -3 -4 -41 -33 -85 -66 -106 -78 -129 -99 -270 -240 -129 -129 -165 -168
-235 -261 -25 -32 -47 -61 -50 -64 -14 -14 -94 -136 -147 -225 -67 -111 -137
-254 -178 -360 -14 -38 -30 -79 -35 -90 -16 -38 -78 -247 -84 -285 -3 -14 -5
-26 -7 -27 -2 -4 -4 -12 -13 -63 -5 -25 -10 -54 -12 -65 -3 -11 -7 -36 -10
-55 -2 -19 -7 -46 -9 -60 -14 -78 -20 -187 -20 -365 0 -221 8 -329 32 -440 3
-16 7 -41 9 -55 14 -142 117 -457 221 -680 71 -154 241 -428 303 -490 3 -3 25
-30 50 -60 40 -50 74 -87 151 -169 23 -25 104 -100 194 -181 117 -105 370
-272 540 -357 141 -71 372 -162 448 -177 7 -2 32 -8 57 -15 25 -7 52 -15 60
-16 8 -2 38 -9 65 -15 28 -6 64 -14 80 -16 17 -3 39 -6 50 -8 117 -20 138 -22
270 -32 155 -12 389 -7 515 11 14 1 45 6 70 9 59 8 118 19 264 51 91 20 274
81 395 132 108 45 329 157 346 175 7 7 7 9 0 6 -78 -41 -354 -149 -418 -163
-12 -2 -67 -15 -122 -29 -55 -13 -118 -27 -139 -30 -21 -4 -48 -8 -60 -11 -12
-3 -41 -7 -66 -10 -314 -36 -662 -20 -905 42 -33 8 -69 17 -80 19 -11 2 -56
14 -100 28 -332 100 -662 278 -919 496 -72 60 -261 250 -311 312 -27 33 -54
66 -60 72 -22 23 -172 246 -208 308 -106 183 -219 460 -257 628 -39 171 -54
256 -65 365 -3 28 -8 68 -10 90 -5 48 -5 356 1 405 2 19 6 56 8 81 3 26 8 60
11 75 3 16 8 47 11 69 5 41 11 76 14 85 1 3 2 8 2 11 -1 4 8 40 19 80 12 41
22 81 24 90 6 28 74 229 91 268 67 152 166 337 242 452 50 75 97 143 104 150
7 8 35 41 62 74 64 78 70 84 174 187 129 129 228 209 387 315 98 66 286 170
322 179 12 3 27 12 34 20 6 8 17 14 24 14 7 0 37 11 66 24 109 47 361 124 464
141 180 31 199 33 284 42 138 13 474 6 568 -11 10 -2 38 -7 63 -10 66 -9 114
-19 230 -46 19 -5 45 -11 57 -13 39 -10 263 -87 311 -108 105 -45 309 -150
380 -195 12 -8 22 -12 22 -9 0 7 -229 159 -302 200 -76 42 -254 129 -323 157
-70 28 -246 89 -270 93 -11 2 -36 9 -55 14 -23 7 -261 11 -710 10 l-675 0 -75
-23z"/>
<path d="M2937 5074 c-1 -1 -38 -4 -82 -8 -44 -3 -96 -8 -115 -11 -19 -3 -55
-8 -80 -11 -57 -8 -79 -11 -110 -19 -14 -3 -38 -8 -53 -11 -31 -6 -169 -47
-207 -62 -14 -5 -29 -10 -33 -10 -19 0 -182 -71 -283 -122 -134 -69 -279 -162
-394 -255 -116 -93 -325 -305 -372 -377 -9 -14 -23 -32 -30 -39 -31 -34 -138
-194 -138 -208 0 -5 -4 -11 -9 -13 -16 -6 -138 -263 -179 -378 -48 -135 -95
-317 -107 -417 -2 -13 -6 -40 -9 -60 -14 -87 -19 -176 -19 -313 0 -160 7 -242
28 -370 16 -92 19 -105 40 -195 10 -42 45 -156 55 -180 4 -11 18 -47 30 -80
12 -33 26 -68 31 -77 5 -10 9 -25 9 -33 0 -8 4 -15 9 -15 5 0 13 -10 16 -22 9
-31 71 -151 113 -218 90 -144 159 -236 266 -354 112 -125 183 -189 331 -300
102 -76 237 -166 250 -166 3 0 24 -12 48 -27 23 -14 43 -26 44 -25 1 0 37 -15
79 -34 139 -64 382 -145 481 -160 21 -3 46 -7 56 -10 10 -3 30 -7 45 -9 15 -2
41 -6 57 -9 105 -18 439 -30 430 -16 -3 4 -31 8 -64 9 -55 1 -107 6 -171 16
-14 2 -45 6 -70 10 -105 16 -295 70 -442 126 -97 37 -286 133 -351 178 -25 17
-48 31 -52 31 -9 0 -179 133 -188 147 -4 7 -12 13 -18 13 -28 0 -325 324 -376
411 -10 16 -21 29 -25 29 -4 0 -8 4 -8 9 0 5 -17 36 -39 68 -82 125 -220 447
-245 575 -2 13 -11 55 -19 93 -34 159 -41 233 -42 440 0 161 6 258 19 321 2
12 7 39 10 59 26 163 101 384 193 570 152 309 393 585 698 799 44 31 85 59 90
64 92 67 473 235 583 257 10 2 47 10 83 18 321 77 690 78 1029 2 14 -4 36 -8
48 -11 33 -7 231 -73 267 -89 17 -8 57 -25 90 -38 65 -27 184 -89 225 -117 14
-10 42 -27 63 -39 21 -12 44 -26 50 -31 7 -6 39 -30 72 -55 111 -84 140 -109
245 -215 166 -165 280 -321 392 -535 32 -60 58 -107 58 -103 0 16 -30 92 -101
253 -129 290 -343 577 -578 775 -30 25 -59 50 -65 56 -6 6 -50 38 -96 72 -47
34 -90 66 -97 72 -7 5 -15 10 -19 10 -3 0 -18 8 -32 19 -78 55 -276 153 -407
201 -33 12 -71 26 -84 31 -58 24 -312 80 -421 94 -106 13 -393 27 -403 19z"/>
<path d="M3738 3862 c-109 -1 -198 -6 -199 -10 0 -4 -2 -275 -3 -602 -2 -535
3 -665 22 -645 3 3 13 -2 23 -11 16 -14 19 -14 41 4 12 11 59 50 103 87 44 37
91 77 105 89 56 47 146 121 158 131 7 5 24 21 37 35 l24 24 0 447 -1 447 -56
4 c-31 1 -145 2 -254 0z"/>
<path d="M2929 3481 c-7 -33 -2 -581 5 -581 5 0 32 20 61 45 l52 44 30 -22
c17 -12 42 -31 58 -42 31 -23 95 -71 110 -83 6 -4 26 -18 45 -32 19 -13 37
-27 40 -30 15 -16 90 -70 98 -70 9 0 15 714 7 756 -5 21 -9 21 -255 20 -137 0
-251 -2 -251 -5z"/>
<path d="M4689 3326 c-2 -2 -49 -7 -104 -10 -55 -3 -140 -9 -190 -13 -49 -3
-102 -6 -117 -6 -16 0 -28 -2 -28 -4 0 -10 29 -51 58 -82 17 -19 32 -38 32
-42 0 -11 -32 -40 -150 -138 -36 -30 -67 -57 -70 -60 -3 -4 -25 -22 -50 -41
-25 -19 -51 -40 -58 -47 -7 -7 -34 -29 -60 -50 -26 -21 -49 -41 -52 -44 -3 -3
-34 -30 -70 -60 -36 -29 -67 -55 -70 -59 -3 -3 -30 -25 -60 -50 -30 -25 -64
-53 -74 -62 -11 -10 -23 -18 -27 -18 -7 0 -54 35 -77 57 -8 7 -23 18 -34 24
-11 6 -50 34 -87 62 -37 29 -78 60 -92 70 -116 85 -218 161 -236 177 -20 17
-23 18 -41 2 -11 -9 -37 -30 -58 -47 -21 -16 -59 -47 -84 -69 -25 -21 -54 -45
-65 -55 -26 -20 -117 -93 -130 -104 -5 -4 -22 -17 -36 -30 -14 -12 -45 -38
-69 -57 -24 -19 -74 -60 -110 -90 -37 -30 -84 -68 -105 -85 -21 -16 -53 -43
-73 -61 l-35 -31 -1 -112 c-1 -62 1 -114 5 -116 3 -3 67 46 141 108 74 62 154
128 179 149 24 20 55 46 69 58 14 12 38 31 53 43 15 12 38 31 51 42 12 11 42
36 66 55 24 19 57 47 74 62 102 87 141 118 151 118 7 0 23 -10 36 -22 14 -13
67 -58 119 -100 52 -42 110 -90 129 -107 19 -17 37 -31 40 -31 3 0 20 -13 36
-28 45 -42 171 -142 179 -142 6 0 34 23 115 96 78 70 154 137 215 189 32 28
71 61 86 75 35 32 137 122 170 150 14 12 54 47 90 79 139 124 205 181 211 181
4 0 24 -22 45 -50 21 -27 43 -50 49 -50 5 0 18 26 28 58 10 31 39 113 64 180
28 76 42 127 36 133 -5 5 -11 7 -14 5z"/>
<path d="M2304 3095 c-3 -6 -3 -169 -2 -363 3 -352 3 -353 23 -335 11 10 51
43 90 73 38 30 77 62 86 70 8 8 82 69 162 134 81 66 147 124 147 130 3 86 -1
290 -5 295 -11 11 -497 7 -501 -4z"/>
<path d="M2985 2616 l-60 -54 0 -516 0 -516 256 0 256 0 -1 414 -1 414 -26 24
c-14 12 -50 42 -80 65 -29 23 -65 53 -79 65 -14 13 -45 39 -70 58 -25 19 -47
37 -50 40 -15 16 -72 60 -78 60 -4 0 -34 -25 -67 -54z"/>
<path d="M1698 2600 c-2 -8 -4 -251 -3 -540 l0 -525 255 0 255 0 2 538 c1 398
-2 537 -10 538 -7 1 -121 2 -254 3 -208 1 -242 -1 -245 -14z"/>
<path d="M3994 2582 c-23 -20 -70 -62 -104 -92 -35 -30 -71 -62 -80 -70 -55
-49 -150 -132 -180 -158 l-34 -30 -28 19 c-15 11 -28 17 -29 12 -3 -30 -4
-710 -1 -720 3 -10 64 -13 257 -13 l254 0 -1 545 c0 300 -3 545 -6 545 -4 0
-25 -17 -48 -38z"/>
<path d="M2770 2437 c-14 -12 -77 -65 -140 -116 -63 -52 -123 -101 -132 -110
-9 -9 -23 -21 -30 -26 -7 -6 -48 -39 -90 -74 l-78 -64 0 -258 0 -259 255 0
255 0 0 78 c0 148 0 807 0 830 0 28 -9 28 -40 -1z"/>
<path d="M3156 458 c3 -5 10 -6 15 -3 13 9 11 12 -6 12 -8 0 -12 -4 -9 -9z"/>
</g>
</svg>
